<?xml version="1.0" encoding="utf-8"?>
<!-- Generator: Adobe Illustrator 28.0.0, SVG Export Plug-In . SVG Version: 6.00 Build 0)  -->
<svg version="1.1" xmlns="http://www.w3.org/2000/svg" xmlns:xlink="http://www.w3.org/1999/xlink" x="0px" y="0px"
	 viewBox="0 0 1000 1000" style="enable-background:new 0 0 1000 1000;" xml:space="preserve">
<style type="text/css">
	.st0{fill:#FFFFFF;}
</style>
<g id="Layer_2">
	<rect class="st0" width="1000" height="1000"/>
</g>
<g id="Layer_1">
	<path d="M227.9,648.6v74.3h74.3C302.2,682,268.8,648.6,227.9,648.6z M227.9,550.2v50.2c68.7,0,124.5,55.7,124.5,124.5h50.2
		C400.7,628.2,322.6,550.2,227.9,550.2L227.9,550.2z M675.6,375.5H326.4v40.9C424.8,448,502.8,526,534.4,624.5h139.3V375.5
		L675.6,375.5L675.6,375.5z M227.9,449.8V500c124.5,0,224.8,100.3,224.8,224.8H501C501,572.4,378.4,449.8,227.9,449.8L227.9,449.8z
		 M725.7,275.2H276.2c-27.9,0-50.2,22.3-50.2,50.2v74.3h50.2v-74.3h447.7v347.4H549.3v50.2h174.6c27.9,0,50.2-22.3,50.2-50.2V325.4
		C774,297.5,751.7,275.2,725.7,275.2z"/>
</g>
</svg>
