<svg xmlns="http://www.w3.org/2000/svg" xml:space="preserve" style="enable-background:new 0 0 200 200" viewBox="0 0 200 200"><path d="M0 0h200v200H0z" style="fill-rule:evenodd;clip-rule:evenodd"/><path xmlns:cc="http://creativecommons.org/ns#" xmlns:dc="http://purl.org/dc/elements/1.1/" xmlns:rdf="http://www.w3.org/1999/02/22-rdf-syntax-ns#" xmlns:svg="http://www.w3.org/2000/svg" d="M162.1 117.5c-10-3.8-22.6-5.1-33-3.9-10.4 1.2-17.7 3.8-17.7 3.8l-1.5.5v14.3l25.5-9c4.3-1.6 10.7-1.9 14.2-.7s2.9 3.3-1.5 4.9L109.9 141v13.8l52-18.7s7-2.6 9.8-6.2c2.8-3.6 1.6-8.8-9.6-12.4zm-47.8-64.9c-7.9-2.7-22.6-7.1-32.8-9v105.1l23.8 7.5v-88c0-4.1 1.8-6.9 4.8-5.9 3.9 1.1 4.6 4.9 4.6 9v35.2c14.8 7.1 26.5 0 26.5-18.9.1-19.4-6.7-28-26.9-35zm-61.9 77.2L77 121v-13.8l-34.1 12.1s-8.2 2.7-13.1 6.3c-5.2 3.9-3.3 10.7 8.2 13.9 12.4 4.1 24.9 4.9 36.7 3 .8-.1 1.6-.3 2.3-.4v-12.4L65.2 134c-4.3 1.6-10.7 1.9-14.2.7-3.6-1.1-2.9-3.3 1.4-4.9z" style="fill-rule:evenodd;clip-rule:evenodd;fill:#fff"/></svg>