<svg xmlns="http://www.w3.org/2000/svg" xml:space="preserve" style="enable-background:new 0 0 1000 1000" viewBox="0 0 1000 1000"><style>.st0{fill:#fff}</style><path id="Layer_2" d="M0 0h1000v1000H0z"/><g xmlns:cc="http://creativecommons.org/ns#" xmlns:dc="http://purl.org/dc/elements/1.1/" xmlns:inkscape="http://www.inkscape.org/namespaces/inkscape" xmlns:rdf="http://www.w3.org/1999/02/22-rdf-syntax-ns#" xmlns:sodipodi="http://sodipodi.sourceforge.net/DTD/sodipodi-0.dtd" xmlns:svg="http://www.w3.org/2000/svg" id="plex-logo"><sodipodi:namedview inkscape:current-layer="plex-logo" inkscape:cx="783.069" inkscape:cy="-132.857" inkscape:pageopacity="0" inkscape:pageshadow="2" inkscape:window-height="1017" inkscape:window-maximized="1" inkscape:window-width="1920" inkscape:window-x="1912" inkscape:window-y="-8" inkscape:zoom=".28" id="namedview21" bordercolor="#111111" borderopacity="1" fit-margin-bottom="0" fit-margin-left="0" fit-margin-right="0" fit-margin-top="0" gridtolerance="10" guidetolerance="10" objecttolerance="10" pagecolor="#ffffff" showgrid="false"/><path inkscape:connector-curvature="0" id="path4" d="M275.6 401.1c-26.6 0-43.8 7.7-58.2 25.7V407H166v244.7s.9.5 3.6.9c3.6.9 22.6 5 36.6-6.8 12.2-10.4 14.9-22.6 14.9-36.1v-35.2c14.9 15.8 31.6 22.6 55.1 22.6 50.6 0 89.4-41.1 89.4-95.7-.1-59.2-37.6-100.3-90-100.3zm-9.9 149.4c-28.4 0-51-23.5-51-51.9 0-28 26.6-50.6 51-50.6 28.9 0 51 22.1 51 51s-22.5 51.5-51 51.5z" class="st0"/><path inkscape:connector-curvature="0" id="path6" d="M438.6 495.5c0 21.2 2.3 46.9 23 74.9.5.5 1.4 1.8 1.4 1.8-8.6 14.4-19 24.4-33 24.4-10.8 0-21.7-5.9-30.7-15.8-9.5-10.8-14-24.8-14-39.7V346h52.8l.5 149.5z" class="st0"/><path id="polygon8" d="M698.2 499.1 635.9 407H700l61.8 92.1-61.8 91.6h-64.1z" style="fill:#ebaf00"/><path id="polygon10" d="M778.5 488.7 834 407h-64.1l-23 33.8z" class="st0"/><path inkscape:connector-curvature="0" id="path12" d="m746.9 557.3 10.8 14.9c10.4 16.3 23.9 24.4 39.7 24.4 16.7-.5 28.4-14.9 33-20.3 0 0-8.1-7.2-18.5-19.4-14-16.3-32.5-46-33-47.4l-32 47.8z" class="st0"/><path inkscape:connector-curvature="0" id="path16" d="M588.5 537.9c-10.8 9.9-18.1 15.3-33 15.3-26.6 0-42-19-44.2-39.7h141.3c.9-2.7 1.4-6.3 1.4-12.2 0-57.3-42-100.2-97.1-100.2-52.4 0-95.2 43.8-95.2 98.4 0 54.2 42.9 97.1 96.6 97.1 37.5 0 70-21.2 87.6-58.7h-57.4zm-31.2-93.5c23.5 0 41.1 15.3 45.1 35.7H513c4.6-21.2 21.3-35.7 44.3-35.7z" class="st0"/></g></svg>