<svg xmlns="http://www.w3.org/2000/svg" xml:space="preserve" style="enable-background:new 0 0 1024 1024" viewBox="0 0 1024 1024"><path d="M0 0h1024v1024H0z" style="fill:#e0b06b"/><path xmlns:svg="http://www.w3.org/2000/svg" d="M544.6 440.2H572v146.9l-92.7-86.3v81.9h-27.4V436.1l92.7 86.4v-82.3zm-136.1 71.5c0 42.4-34.5 76.9-76.9 76.9-42.4 0-76.9-34.5-76.9-76.9 0-42.4 34.5-76.9 76.9-76.9 42.4 0 76.9 34.5 76.9 76.9zm-28.2 0c0-27.2-21.9-49.3-48.8-49.3s-48.7 22.1-48.7 49.3c0 27.2 21.9 49.3 48.7 49.3 26.9 0 48.8-22.1 48.8-49.3zm-172.4 1.2c-7.3-5.6-16.9-10-31.2-14.6-27.8-8.9-27.8-15.8-27.8-19.3 0-7.9 8.8-16.1 23.6-16.1 12.5 0 22.1 6.2 25.7 8.9l2 1.5 22.1-15-2.5-2.8c-.7-.9-17.8-20.8-47.5-20.8-14.2 0-27.3 4.6-36.8 12.9-9.5 8.3-15 19.7-15 31.5 0 12.6 5.6 23.2 16.4 31.5 7.3 5.6 16.9 10 31.2 14.6 27.8 8.8 27.8 15.8 27.8 19.3 0 7.9-8.8 16.1-23.6 16.1-12.5 0-22.1-6.2-25.7-8.9l-2-1.5-22.1 15 2.5 2.8c.7.9 17.8 20.6 47.4 20.6 14.2 0 27.3-4.6 36.8-12.9 9.5-8.3 15-19.8 15-31.5 0-12.4-5.4-22.9-16.3-31.3zm407.8-.6c0-42.4 34.5-76.9 76.9-76.9 42.4 0 76.9 34.5 76.9 76.9 0 42.4-34.5 76.9-76.9 76.9-42.4 0-76.9-34.5-76.9-76.9zm28.1 0c0 27.2 21.9 49.3 48.7 49.3 26.9 0 48.7-22.1 48.7-49.3 0-27.2-21.9-49.3-48.7-49.3-26.8 0-48.7 22.1-48.7 49.3zm172.5-1.4c7.3 5.6 16.9 10 31.2 14.6 27.8 8.9 27.8 15.8 27.8 19.3 0 7.9-8.8 16.1-23.6 16.1-12.5 0-22.1-6.2-25.7-8.9l-2-1.5-22.1 15 2.5 2.8c.7.9 17.8 20.6 47.4 20.6 14.2 0 27.3-4.6 36.8-12.9 9.5-8.3 15-19.7 15-31.5 0-12.6-5.6-23.2-16.4-31.5-7.3-5.6-16.9-10-31.2-14.6-27.8-8.9-27.8-15.8-27.8-19.3 0-7.9 8.8-16.1 23.6-16.1 12.5 0 22.1 6.2 25.7 8.9l2 1.5 22.1-15-2.5-2.8c-.7-.9-17.8-20.6-47.4-20.6-14.2 0-27.3 4.6-36.8 12.8-9.5 8.3-15 19.8-15 31.5 0 12.7 5.5 23.4 16.4 31.6z"/></svg>