<svg xmlns="http://www.w3.org/2000/svg" xml:space="preserve" style="enable-background:new 0 0 256 256" viewBox="0 0 256 256"><path d="M0 0h256v256H0z"/><path d="M45 70.7c-14.2 0-25.7-11.5-25.7-25.7S30.8 19.3 45 19.3h.1c14.1 0 25.6 11.5 25.6 25.7S59.2 70.7 45 70.7z" style="fill:#2ebd59" transform="matrix(2.81 0 0 2.81 1.407 1.407)"/><path d="M155.395 160.734c-.843 0-1.686-.281-2.53-.843-16.297-10.116-37.091-12.083-61.82-6.463-2.528.562-5.057-1.124-5.62-3.653-.561-2.53 1.125-5.058 3.654-5.62 27.257-6.182 50.299-3.653 68.845 7.868 2.248 1.405 3.09 4.215 1.686 6.744-.843 1.124-2.53 1.967-4.215 1.967zM162.982 140.783c-.843 0-1.686-.281-2.53-.843-18.826-11.521-47.77-14.893-70.25-8.15-2.528.844-5.338-.561-5.9-3.09-.843-2.53.562-5.34 3.09-5.901 24.729-7.587 57.044-3.653 78.119 9.273 2.248 1.405 3.09 4.215 1.686 6.744-1.124 1.405-2.53 1.967-4.215 1.967zM171.693 118.022c-.843 0-1.686-.281-2.53-.562-22.76-13.488-60.695-14.893-82.613-8.15-2.53.844-5.34-.561-5.901-3.09-.843-2.53.562-5.34 3.09-5.901 23.886-7.306 65.193-5.901 90.202 8.992 2.248 1.405 3.09 4.215 1.686 6.463-.562 1.405-2.248 2.248-3.934 2.248z"/></svg>