<svg xmlns="http://www.w3.org/2000/svg" xml:space="preserve" style="enable-background:new 0 0 256 256" viewBox="0 0 256 256"><style>.st0{fill:#fff}</style><path id="Layer_2" d="M0 0h256v256H0z" class="st0"/><g id="Layer_1"><path d="M72.2 31.3c-.7-2.4-2.6-4.4-5-5-4.4-1.2-22.2-1.2-22.2-1.2s-17.8 0-22.2 1.2c-2.4.7-4.4 2.6-5 5-1.2 4.5-1.2 13.7-1.2 13.7s0 9.2 1.2 13.7c.7 2.4 2.6 4.4 5 5 4.4 1.2 22.2 1.2 22.2 1.2s17.8 0 22.2-1.2c2.4-.7 4.4-2.6 5-5 1.2-4.4 1.2-13.7 1.2-13.7s0-9.2-1.2-13.7z" style="fill:red" transform="matrix(2.81 0 0 2.81 1.407 1.407)"/><path d="m111.84 151.742 41.588-23.885-41.588-23.885z" class="st0"/></g></svg>